<?xml version="1.0" encoding="UTF-8"?>
<svg version="1.1" xmlns="http://www.w3.org/2000/svg" width="512" height="512">
<path d="M0 0 C5.04956406 1.72511797 8.0383128 6.68440039 11.1953125 10.75 C12.04712505 11.82375209 12.90001723 12.89664846 13.75390625 13.96875 C15.58746758 16.28194599 17.40306835 18.60809264 19.2109375 20.94140625 C23.00278539 25.8142634 26.93023426 30.57734861 30.86816406 35.33251953 C38.1794508 44.23961343 38.1794508 44.23961343 38.23046875 49.09765625 C36.91801691 53.72838256 34.70653795 56.56119469 31.6328125 60.1875 C31.11267578 60.82365234 30.59253906 61.45980469 30.05664062 62.11523438 C28.78203444 63.6704878 27.49036237 65.21172825 26.1953125 66.75 C32.1900897 75.12588029 42.23462849 77.23404946 51.98486328 78.99291992 C67.21539272 81.32456503 83.55634545 78.85005628 96.1953125 69.75 C93.49451522 64.14153587 90.75358632 58.79719928 87.11328125 53.734375 C85.78613149 50.86547253 85.84828391 48.88868083 86.1953125 45.75 C87.24243873 43.3812871 88.30781708 41.32763945 89.6328125 39.125 C90.0131665 38.47200928 90.39352051 37.81901855 90.78540039 37.14624023 C92.23849439 34.67048612 93.71677483 32.21064773 95.1953125 29.75 C95.88322661 28.59578707 96.57069857 27.44131055 97.2578125 26.28662109 C99.53912144 22.45566039 101.83434617 18.6331843 104.1328125 14.8125 C104.51492889 14.17487732 104.89704529 13.53725464 105.29074097 12.88031006 C106.3876031 11.05356854 107.49150637 9.23128494 108.59765625 7.41015625 C109.24210693 6.34418213 109.88655762 5.27820801 110.55053711 4.17993164 C112.1953125 1.75 112.1953125 1.75 114.1953125 0.75 C119.90732663 0.09452297 119.90732663 0.09452297 122.1953125 0.75 C125.86977361 4.57899452 128.59930976 8.79104912 131.2578125 13.375 C132.0308832 14.68641421 132.80434303 15.99759909 133.578125 17.30859375 C133.99223633 18.0135498 134.40634766 18.71850586 134.83300781 19.44482422 C136.33323719 21.9833844 137.85219617 24.5100756 139.375 27.03515625 C140.18505493 28.37876221 140.18505493 28.37876221 141.01147461 29.74951172 C142.07685456 31.51578687 143.14275674 33.28174716 144.20922852 35.04736328 C144.69834717 35.86060059 145.18746582 36.67383789 145.69140625 37.51171875 C146.12638428 38.23319092 146.5613623 38.95466309 147.00952148 39.69799805 C149.48410168 43.98023947 150.8657467 46.68582741 150.1953125 51.75 C148.77476107 54.86552757 147.01261522 57.72713891 145.1953125 60.625 C144.47988281 61.800625 144.47988281 61.800625 143.75 63 C142.57669814 64.92421505 141.39176724 66.84012729 140.1953125 68.75 C147.36375512 76.82953964 159.81264412 79.1039673 170.1953125 79.75 C183.74918811 80.01241773 196.25314722 77.95142964 207.68359375 70.21484375 C208.18246094 69.73144531 208.68132812 69.24804688 209.1953125 68.75 C209.1953125 64.09205415 205.75631259 61.25202899 202.83789062 57.83984375 C199.65345787 53.92688609 198.18323179 50.98094895 198.1953125 45.75 C199.35546875 43.2578125 199.35546875 43.2578125 201.2578125 40.875 C201.99515625 39.93527344 202.7325 38.99554688 203.4921875 38.02734375 C204.39104464 36.93309771 205.29227909 35.84080209 206.1953125 34.75 C207.28399298 33.4180822 208.37252594 32.08604381 209.4609375 30.75390625 C211.84312397 27.84876839 214.23892305 24.9554194 216.640625 22.06640625 C220.43000721 17.49142041 224.10177197 12.8298248 227.73168945 8.12768555 C232.27544648 2.27032634 232.27544648 2.27032634 234.1953125 0.75 C241.14850371 -0.0225768 241.14850371 -0.0225768 244.29244614 2.29774857 C246.86506585 5.61312083 246.74044122 8.45699133 246.67633057 12.4821167 C246.67974827 13.2654929 246.68316597 14.0488691 246.68668723 14.85598397 C246.69328094 17.48346201 246.67126614 20.10992062 246.64941406 22.73730469 C246.6482859 24.61964392 246.64891883 26.50198491 246.65118408 28.38432312 C246.65233339 33.49771326 246.62878891 38.61072932 246.60088825 43.7240324 C246.57591076 49.06651102 246.57353548 54.40899788 246.56878662 59.75152588 C246.55634611 69.86981738 246.52350989 79.98793635 246.48338866 90.10615182 C246.43870446 101.62474353 246.41669233 113.1433434 246.39660692 124.66200018 C246.35477825 148.35809584 246.28440524 172.05403826 246.1953125 195.75 C246.96657471 196.04310059 247.73783691 196.33620117 248.5324707 196.63818359 C255.18357075 199.41521757 258.04683802 204.02137547 261.015625 210.328125 C263.65805754 217.99292931 263.50309601 225.78411055 260.1328125 233.1875 C255.56714308 240.93260495 250.70031924 245.06465769 242.234375 248.12109375 C238.19405273 248.95720157 234.30516739 248.87747689 230.1953125 248.75 C230.21102295 249.54470703 230.2267334 250.33941406 230.24291992 251.15820312 C230.84429031 286.2153053 223.70600023 312.87309771 202.1953125 340.75 C202.8553125 340.935625 203.5153125 341.12125 204.1953125 341.3125 C210.35663565 344.26480068 214.89243367 349.32427536 219.38671875 354.37109375 C226.93500644 363.74719151 226.93500644 363.74719151 237.27734375 368.77734375 C241.05744735 368.68134241 241.05744735 368.68134241 244.73046875 368.15234375 C251.3071332 367.38864991 257.34654963 369.53793947 262.54931641 373.57788086 C269.4533273 379.96456521 276.09527605 386.58986562 282.66625977 393.31689453 C287.96203646 398.72945603 293.25856844 403.74993323 299.31713867 408.29638672 C309.71459488 416.34350153 316.29171108 430.98717021 318.1953125 443.75 C318.49964134 448.73433976 318.52595618 453.71500561 318.53125 458.70703125 C318.53768865 460.14190296 318.54441778 461.57677339 318.55142212 463.01164246 C318.56332667 466.00120086 318.56710934 468.99064421 318.56591797 471.98022461 C318.56571358 475.80809904 318.59316844 479.63524107 318.62746239 483.46294117 C318.64969025 486.41836442 318.65375702 489.373609 318.65269852 492.32910728 C318.6550548 493.74090825 318.66388001 495.15271412 318.67936325 496.56443214 C318.69896356 498.53349858 318.69067802 500.50278288 318.68115234 502.47192383 C318.68400238 503.59061356 318.68685242 504.70930328 318.68978882 505.8618927 C318.08432818 509.39823049 316.98628489 510.5689194 314.1953125 512.75 C311.28746369 513.45882303 309.2527735 513.08971789 306.1953125 512.75 C303.52099761 510.93836733 303.23610891 509.87238923 302.1953125 506.75 C215.0753125 506.255 215.0753125 506.255 126.1953125 505.75 C125.5353125 507.4 124.8753125 509.05 124.1953125 510.75 C122.1953125 512.75 122.1953125 512.75 118.3203125 513.125 C115.16803883 513.05049171 114.35142575 512.86318211 111.6953125 510.9375 C110.1953125 508.75 110.1953125 508.75 110.1953125 505.75 C87.29946464 505.76379302 64.40382653 505.80595725 41.50809765 505.88209057 C30.87768944 505.91677428 20.24741136 505.94210052 9.61694336 505.94555664 C0.35364793 505.94859184 -8.90941596 505.96902232 -18.17262191 506.01052457 C-23.07951374 506.03189673 -27.98607606 506.04443362 -32.89301491 506.03615379 C-37.50851071 506.02864022 -42.12333737 506.0443259 -46.7387104 506.07806015 C-48.43545306 506.0863261 -50.13226186 506.08600512 -51.82899857 506.07659721 C-54.14089078 506.06504426 -56.45056447 506.08398299 -58.76228333 506.11076355 C-60.05740247 506.11352893 -61.35252161 506.11629431 -62.68688679 506.11914349 C-65.99226561 506.43022537 -65.99226561 506.43022537 -67.68233776 509.22745228 C-68.23790088 510.4761134 -68.23790088 510.4761134 -68.8046875 511.75 C-70.6550074 513.6003199 -73.22940832 513.04140132 -75.69921875 513.17578125 C-78.78066217 512.55263221 -79.85236018 511.17816624 -81.8046875 508.75 C-82.30589294 505.88208008 -82.30589294 505.88208008 -82.30639648 502.51953125 C-82.31577744 501.2572168 -82.32515839 499.99490234 -82.33482361 498.69433594 C-82.32433616 497.31705047 -82.31296593 495.93977149 -82.30078125 494.5625 C-82.3009364 493.13964769 -82.30242796 491.71679495 -82.30519104 490.29394531 C-82.30657563 487.30791587 -82.29402038 484.32236631 -82.27124023 481.33642578 C-82.24306125 477.54175694 -82.24553528 473.74789753 -82.25833035 469.95317078 C-82.26535332 467.01024699 -82.25742036 464.06750395 -82.24507332 461.12460327 C-82.24060799 459.72782082 -82.24017814 458.33101859 -82.24413872 456.93423462 C-82.26187388 445.16102284 -80.90933159 434.36405096 -75.0546875 424 C-74.70253174 423.36368652 -74.35037598 422.72737305 -73.98754883 422.07177734 C-69.9639894 414.99864048 -65.3073554 409.87694499 -58.90234375 404.85546875 C-51.31606462 398.69346248 -44.63181132 391.67409574 -37.83691406 384.66577148 C-36.16086093 382.94119599 -34.47548133 381.2261504 -32.7890625 379.51171875 C-32.29098083 378.99187912 -31.79289917 378.47203949 -31.27972412 377.93644714 C-25.91932242 372.50211848 -19.55833994 368.54683926 -11.8046875 367.75 C-10.7233252 367.86287354 -9.64196289 367.97574707 -8.52783203 368.09204102 C-0.50710921 368.85798114 -0.50710921 368.85798114 6.58496094 365.55126953 C9.93307913 362.59592836 12.87680074 359.28774984 15.8203125 355.9375 C17.3715224 354.2483672 18.93359443 352.57000334 20.49935913 350.8943634 C21.46214718 349.8561229 22.41459007 348.80815385 23.35440063 347.74906921 C26.03945822 344.761945 28.59675895 342.55539027 32.1953125 340.75 C32.8553125 340.75 33.5153125 340.75 34.1953125 340.75 C33.03515625 339.17025391 33.03515625 339.17025391 31.8515625 337.55859375 C21.79679072 323.7067907 13.75988235 310.40030593 9.1953125 293.75 C8.875625 292.60144531 8.5559375 291.45289063 8.2265625 290.26953125 C5.08435397 276.69693606 5.92164599 262.59331498 6.1953125 248.75 C5.61015869 248.76740234 5.02500488 248.78480469 4.42211914 248.80273438 C-4.39003814 248.95465253 -11.62591376 247.2237512 -18.2421875 241.0625 C-24.72696344 233.80540989 -26.62818133 227.05772654 -26.3125 217.32421875 C-25.19604413 209.46608702 -21.842419 202.91085599 -15.5546875 198 C-12.2184806 195.75 -12.2184806 195.75 -9.8046875 195.75 C-9.80837467 194.7693243 -9.81206184 193.78864861 -9.81586075 192.77825546 C-9.90459313 168.93464853 -9.97035918 145.09106297 -10.01193619 121.2473259 C-10.03257608 109.71674488 -10.06072398 98.18627281 -10.10644531 86.65576172 C-10.14626933 76.60772323 -10.17210992 66.55976363 -10.18104148 56.51164842 C-10.18626373 51.18944678 -10.19856762 45.86747089 -10.22760773 40.54534149 C-10.25470672 35.53851217 -10.26314366 30.53200212 -10.25711823 25.52510643 C-10.25822094 23.68522852 -10.26620757 21.8453402 -10.2815094 20.00552559 C-10.30135132 17.49732744 -10.2966484 14.9903417 -10.28570557 12.4821167 C-10.29735693 11.75059694 -10.3090083 11.01907718 -10.32101274 10.26539016 C-10.28121347 6.90076083 -10.03212549 5.05692966 -8.00509262 2.32143021 C-5.38441131 0.44985768 -3.23513389 -0.19100421 0 0 Z " fill="#020101" transform="translate(137.8046875,-0.75)"/>
<path d="M0 0 C53.46 0 106.92 0 162 0 C162.33 9.9 162.66 19.8 163 30 C165.37174946 37.26564127 165.37174946 37.26564127 169.9375 41.875 C170.60652344 42.42929688 171.27554688 42.98359375 171.96484375 43.5546875 C175.70004762 46.20732748 178.38099466 47.24156488 182.9921875 47.2734375 C183.94480469 47.2940625 184.89742187 47.3146875 185.87890625 47.3359375 C187.86840401 47.36187619 189.85801689 47.38016697 191.84765625 47.390625 C197.74377661 47.5338506 201.35618378 47.99671015 206 52 C206.59941406 52.48855469 207.19882812 52.97710937 207.81640625 53.48046875 C210.18724155 56.5242144 210.21737693 60.25983803 210 64 C208.07297405 67.85405189 205.92161689 71.09218638 202 73 C198.87615137 73.57164698 196.10301999 73.74541821 193 73 C191.63823419 71.01924973 190.30406884 69.01920337 189 67 C186.02120455 66.22683176 184.13695457 66.54463563 181 67 C179.09437226 69.85844161 178.67339148 71.07251362 178.125 74.3125 C177.0477801 79.48820497 175.02749105 83.16871776 171.0625 86.75 C165.95372188 89.84622917 161.37355458 90.33059288 155.48046875 90.37109375 C154.66306717 90.38012222 153.84566559 90.3891507 153.00349426 90.39845276 C151.27800133 90.41292262 149.55245393 90.42183387 147.8269043 90.42553711 C145.20591283 90.43741655 142.58729092 90.48661579 139.96679688 90.53710938 C138.28386556 90.54657705 136.6009199 90.55381044 134.91796875 90.55859375 C133.75662666 90.58789223 133.75662666 90.58789223 132.57182312 90.61778259 C127.28174395 90.57457065 124.34491244 89.25289713 120.01461792 86.29116821 C112.57959097 81.52606096 104.58359612 81.54486029 96.00390625 81.56640625 C94.77518295 81.5611644 93.54645966 81.55592255 92.28050232 81.55052185 C89.6927872 81.54412401 87.10504291 81.54540946 84.51733398 81.55395508 C80.57808209 81.56246633 76.64028092 81.5336666 72.70117188 81.50195312 C70.17708376 81.50034083 67.65299311 81.50091919 65.12890625 81.50390625 C63.96194717 81.49267227 62.7949881 81.48143829 61.59266663 81.46986389 C51.86317206 81.55198886 43.7118386 83.86558293 36 90 C35.17876072 91.20249258 34.35852107 92.40566822 33.5390625 93.609375 C31.54308323 95.97314787 30.50152211 96.88793635 27.453125 97.5690918 C24.48265269 97.68836847 21.59253178 97.61172283 18.625 97.4375 C17.60277344 97.40591797 16.58054687 97.37433594 15.52734375 97.34179688 C13.01524566 97.25962544 10.50913466 97.14484348 8 97 C7.731875 96.21625 7.46375 95.4325 7.1875 94.625 C6.15185568 91.71885077 6.15185568 91.71885077 3 90 C1.40514781 89.67883355 -0.20129658 89.41272198 -1.8125 89.1875 C-6.98475885 88.21487406 -9.41078639 86.851839 -13 83 C-15.65882283 78.82184984 -16.65342687 74.65705401 -17.5703125 69.85546875 C-17.82872041 67.9948306 -17.82872041 67.9948306 -19 67 C-23.05340998 66.5122868 -23.05340998 66.5122868 -27 67 C-27.639375 67.99 -28.27875 68.98 -28.9375 70 C-31 73 -31 73 -33.02734375 73.57421875 C-37.18521617 73.7748482 -40.12510636 73.36247754 -43.4375 70.75 C-46.13227455 67.85804682 -47.83987136 65.83480733 -48.1875 61.8515625 C-47.7371697 56.50389019 -46.56742058 53.70922465 -42.5703125 50.09375 C-39.52728368 47.97422744 -36.75411623 47.87960492 -33.17578125 47.859375 C-31.75555664 47.83037109 -31.75555664 47.83037109 -30.30664062 47.80078125 C-28.33027829 47.76726173 -26.35359793 47.74872402 -24.37695312 47.74609375 C-16.8593613 47.55294399 -11.95676602 45.7498182 -6.47827148 40.55786133 C3.32095098 29.72974702 -0.44023345 13.20700353 0 0 Z " fill="#FCDE9D" transform="translate(175,159)"/>
<path d="M0 0 C7.26 0 14.52 0 22 0 C21.01 2.31 20.02 4.62 19 7 C18.49735274 10.39729041 18.49735274 10.39729041 18.5625 13.75 C18.54316406 14.85859375 18.52382812 15.9671875 18.50390625 17.109375 C18.72312454 20.03121814 18.72312454 20.03121814 20.62060547 21.65356445 C25.15191315 24.21770994 30.42739073 23.47837169 35.51489258 23.44604492 C37.5324828 23.43762527 39.54714909 23.46615176 41.56445312 23.49804688 C53.73507 23.49201286 62.72450483 20.97320502 72 13 C74.7313065 14.28288639 76.69910327 15.54530055 79.125 17.4375 C87.32735195 23.29187502 96.56420671 23.48410376 106.35205078 23.39111328 C108.39291496 23.3748573 110.43184755 23.39112887 112.47265625 23.41015625 C114.41591797 23.40435547 114.41591797 23.40435547 116.3984375 23.3984375 C117.57067871 23.39505371 118.74291992 23.39166992 119.95068359 23.38818359 C123.34607191 22.95594441 124.7432466 22.57095928 127 20 C127.69952489 17.04448474 127.69952489 17.04448474 127.75 13.8125 C127.80671875 12.72582031 127.8634375 11.63914062 127.921875 10.51953125 C127.94765625 9.68808594 127.9734375 8.85664063 128 8 C128.8564209 7.9906543 129.7128418 7.98130859 130.59521484 7.97167969 C133.81997419 7.92726032 137.0438367 7.8654677 140.26806641 7.79248047 C141.65466476 7.76452356 143.041415 7.74318529 144.42822266 7.72900391 C152.20459588 7.64478326 159.03614201 7.2506321 166.16650391 3.84863281 C168 3 168 3 170 3 C171.32262026 27.57869325 163.44836228 52.03245556 147.04858398 70.62060547 C130.67578457 88.64163559 111.66440926 98.84406726 88 104 C87.20335937 104.19464844 86.40671875 104.38929688 85.5859375 104.58984375 C61.48816844 108.41199745 35.602924 100.82264768 15.9609375 86.8359375 C-4.95568197 70.16156198 -19.41398748 47.58333433 -23.73046875 20.91796875 C-24.28128787 14.95475301 -24.14531134 8.98198343 -24 3 C-23.40574219 3.2165625 -22.81148437 3.433125 -22.19921875 3.65625 C-15.64477678 5.85805321 -9.8865622 6.35349274 -3 6 C-2.01 4.02 -1.02 2.04 0 0 Z " fill="#95695A" transform="translate(183,256)"/>
<path d="M0 0 C9.33034784 6.77408816 12.82521814 17.41739381 16 28 C16 47.47 16 66.94 16 87 C-42.74 87 -101.48 87 -162 87 C-162 78.42 -162 69.84 -162 61 C-159.03776042 59.56770833 -156.07552083 58.13541667 -153.11328125 56.703125 C-150.03434852 55.1755072 -150.03434852 55.1755072 -147.94897461 53.14526367 C-143.84006196 50.15619045 -139.46176755 48.68269659 -134.703125 46.97265625 C-133.14800201 46.40078079 -133.14800201 46.40078079 -131.5614624 45.81735229 C-128.1274839 44.55686654 -124.68880094 43.30976275 -121.25 42.0625 C-118.83689723 41.17940174 -116.42414232 40.29535239 -114.01171875 39.41040039 C-109.58625655 37.78812692 -105.15980433 36.1686644 -100.73162079 34.55383587 C-89.92321094 30.61230899 -79.13036115 26.62903932 -68.33764648 22.64477539 C-63.47911204 20.85126692 -58.61927678 19.06136264 -53.75805664 17.27514648 C-43.78980165 13.61221965 -33.82406336 9.94530564 -23.88671875 6.19921875 C-21.78664238 5.41189669 -19.68625185 4.62542074 -17.58569336 3.83938599 C-15.75923266 3.15199662 -13.93713047 2.45306003 -12.11523438 1.75366211 C-11.07044922 1.36315674 -10.02566406 0.97265137 -8.94921875 0.5703125 C-8.07612061 0.23789551 -7.20302246 -0.09452148 -6.3034668 -0.43701172 C-3.74893432 -1.06136274 -2.43982382 -0.91721205 0 0 Z " fill="#E4636D" transform="translate(425,418)"/>
<path d="M0 0 C3.27475809 0.35851381 6.25196323 1.35122483 9.33984375 2.46875 C10.64791992 2.94006348 10.64791992 2.94006348 11.98242188 3.42089844 C12.95759766 3.77700195 13.93277344 4.13310547 14.9375 4.5 C16.01193359 4.88961914 17.08636719 5.27923828 18.19335938 5.68066406 C32.09385598 10.73711174 45.96140785 15.88414414 59.83276367 21.01983643 C70.28180922 24.88826041 80.73472618 28.74601987 91.19140625 32.59375 C92.48367553 33.06934966 93.77594238 33.54495593 95.06820679 34.02056885 C100.14035059 35.88724758 105.21255362 37.75376258 110.28540039 39.61853027 C113.81687309 40.91673689 117.3479203 42.21609519 120.87890625 43.515625 C121.91261856 43.89521362 122.94633087 44.27480225 124.0113678 44.66589355 C127.01025628 45.77018958 130.00550067 46.88386161 133 48 C134.74698685 48.64370544 134.74698685 48.64370544 136.52926636 49.30041504 C137.69257477 49.73591675 138.85588318 50.17141846 140.05444336 50.62011719 C141.11392685 51.01398621 142.17341034 51.40785522 143.26499939 51.81365967 C145.69370772 52.86714194 147.30642605 53.81041824 149.25 55.5625 C152.66871981 58.84005958 152.66871981 58.84005958 161 62 C161 70.58 161 79.16 161 88 C102.26 88 43.52 88 -17 88 C-17 19.29565217 -17 19.29565217 -6 6 C-5.46890625 5.34515625 -4.9378125 4.6903125 -4.390625 4.015625 C-2.875 2.3125 -2.875 2.3125 0 0 Z " fill="#E4636D" transform="translate(88,417)"/>
<path d="M0 0 C2.88807294 1.35720131 5.36079945 2.93808636 7.9375 4.8125 C23.18122671 15.01656583 43.66303714 17.47724287 61.59375 14.58105469 C70.94743014 12.65970042 79.72242209 9.82435522 88 5 C89.32916111 4.32505337 90.6613196 3.65586355 92 3 C92.48210937 3.78246094 92.96421875 4.56492187 93.4609375 5.37109375 C94.09257812 6.38300781 94.72421875 7.39492187 95.375 8.4375 C96.00148438 9.44683594 96.62796875 10.45617187 97.2734375 11.49609375 C98.75816302 14.08011063 98.75816302 14.08011063 101 15 C104.38281933 15.36769775 106.26250025 15.53636345 109.0625 13.5 C111.65104758 10.15993861 113.84829539 6.63320614 116 3 C116.66644531 3.38671875 117.33289063 3.7734375 118.01953125 4.171875 C137.09183157 14.94839154 159.11607078 18.82151098 180.6875 13.4375 C189.69907149 10.77477488 199.59072453 7.0937612 206 0 C211.41500473 2.44394019 214.68437739 5.45653982 217 11 C217.88746372 18.28327535 217.43243497 25.69422499 217 33 C215.80455566 33.02187378 215.80455566 33.02187378 214.58496094 33.04418945 C210.97281876 33.11867475 207.36160026 33.21533512 203.75 33.3125 C202.49574219 33.33505859 201.24148438 33.35761719 199.94921875 33.38085938 C198.74394531 33.41630859 197.53867187 33.45175781 196.296875 33.48828125 C194.63156738 33.52755737 194.63156738 33.52755737 192.93261719 33.56762695 C189.6980064 34.0445247 188.2644518 34.66211933 186 37 C185.39065992 41.57082476 185.39065992 41.57082476 187.1262207 45.68676758 C189.86586646 47.60683983 192.09720709 47.4365884 195.41796875 47.51171875 C196.67158203 47.54716797 197.92519531 47.58261719 199.21679688 47.61914062 C200.52712891 47.64169922 201.83746094 47.66425781 203.1875 47.6875 C204.52282013 47.72067666 205.85810832 47.75516666 207.19335938 47.79101562 C210.46193825 47.87361509 213.73095644 47.93848004 217 48 C217 53.61 217 59.22 217 65 C142.42 65 67.84 65 -9 65 C-9 59.39 -9 53.78 -9 48 C-6.85183273 47.99191315 -4.70366547 47.98382629 -2.49040222 47.97549438 C17.71398825 47.89849131 37.91830983 47.81055472 58.12260914 47.71247292 C68.51084222 47.6623077 78.89906725 47.61586528 89.28735352 47.578125 C98.33963436 47.545229 107.39185346 47.50541113 116.44406623 47.45720994 C121.23907857 47.43192111 126.03404984 47.41014691 130.8291111 47.39665604 C135.33935631 47.38385727 139.8494608 47.36182664 144.35962868 47.33261681 C146.01767458 47.32352389 147.67574316 47.31784682 149.33381271 47.31578636 C151.59252004 47.31247587 153.85082542 47.29703189 156.10945129 47.2784729 C157.37507306 47.27294214 158.64069483 47.26741138 159.94466877 47.26171303 C163.17348294 47.2322137 163.17348294 47.2322137 166 45 C166.53073253 40.92789115 166.53073253 40.92789115 166 37 C162.59691389 33.59015732 159.7148067 33.61845604 155.02716064 33.60127258 C154.32545549 33.59462576 153.62375034 33.58797893 152.90078139 33.58113068 C150.54991769 33.56248076 148.19956205 33.56510722 145.84863281 33.56762695 C144.16332784 33.55861098 142.47802944 33.54828417 140.79273987 33.53674316 C136.21665915 33.50912757 131.64070271 33.49988247 127.06454945 33.49388909 C122.2825457 33.48451728 117.50063521 33.45831488 112.71868896 33.43388367 C103.6629778 33.39018211 94.60728468 33.36165761 85.55150008 33.33856028 C75.24199732 33.3115282 64.93258821 33.26761547 54.62315226 33.22227156 C33.41548518 33.12937292 12.20779008 33.05771608 -9 33 C-9.13169124 29.47692164 -9.21097161 25.95448359 -9.28125 22.4296875 C-9.31895508 21.43799561 -9.35666016 20.44630371 -9.39550781 19.42456055 C-9.4947017 12.78683616 -8.76845346 9.26527811 -4.5 4.125 C-1.96875 1.6328125 -1.96875 1.6328125 0 0 Z " fill="#FCEE9E" transform="translate(152,79)"/>
<path d="M0 0 C53.46 0 106.92 0 162 0 C162 9.24 162 18.48 162 28 C161.67 28 161.34 28 161 28 C161 24.37 161 20.74 161 17 C151.1 17.495 151.1 17.495 141 18 C141.99 18.99 142.98 19.98 144 21 C144.43359375 22.9375 144.43359375 22.9375 144.4375 25 C144.45683594 25.680625 144.47617187 26.36125 144.49609375 27.0625 C143.77979913 29.85999709 142.4248305 30.50821505 140 32 C136.35505246 32.61106039 132.69077805 32.46372646 129 32.4375 C128.00226563 32.45748047 127.00453125 32.47746094 125.9765625 32.49804688 C118.72697177 32.4931879 118.72697177 32.4931879 115.33984375 30.1953125 C113.38392177 26.99056571 113.53257468 24.67262748 114 21 C114.99 20.01 115.98 19.02 117 18 C93.24 18 69.48 18 45 18 C45.99 18.99 46.98 19.98 48 21 C48.4375 24.4375 48.4375 24.4375 48 28 C45.97346453 30.6115839 44.76322188 31.83727168 41.49804688 32.53344727 C38.49712451 32.56903445 35.50110075 32.5939542 32.5 32.5625 C30.93185547 32.59827148 30.93185547 32.59827148 29.33203125 32.63476562 C21.72264666 32.62015093 21.72264666 32.62015093 18.2734375 29.66015625 C16.64585499 26.26020627 16.91374475 24.5691244 18 21 C18.99 19.515 18.99 19.515 20 18 C18.63875 18.804375 18.63875 18.804375 17.25 19.625 C16.73953125 19.92664063 16.2290625 20.22828125 15.703125 20.5390625 C12.19231389 23.55062983 10.19100526 26.77037138 9.48101807 31.34103394 C9.4676944 33.15971481 9.4676944 33.15971481 9.45410156 35.01513672 C9.44376389 35.68900925 9.43342621 36.36288177 9.42277527 37.05717468 C9.39348573 39.26492688 9.39185116 41.47175681 9.390625 43.6796875 C9.37563384 45.21812677 9.35890472 46.75654999 9.34051514 48.29495239 C9.29693383 52.3292314 9.27686323 56.36329333 9.26177979 60.39776611 C9.24217521 64.52051581 9.20020906 68.64303222 9.16015625 72.765625 C9.08495418 80.84368879 9.03460247 88.92166073 9 97 C8.34 96.01 7.68 95.02 7 94 C4.41679359 90.44809119 2.30526198 89.72782698 -1.875 89.0625 C-7.07160729 88.18236769 -9.40205441 86.8612099 -13 83 C-15.65882283 78.82184984 -16.65342687 74.65705401 -17.5703125 69.85546875 C-17.82872041 67.9948306 -17.82872041 67.9948306 -19 67 C-23.05340998 66.5122868 -23.05340998 66.5122868 -27 67 C-27.639375 67.99 -28.27875 68.98 -28.9375 70 C-31 73 -31 73 -33.02734375 73.57421875 C-37.18521617 73.7748482 -40.12510636 73.36247754 -43.4375 70.75 C-46.13227455 67.85804682 -47.83987136 65.83480733 -48.1875 61.8515625 C-47.7371697 56.50389019 -46.56742058 53.70922465 -42.5703125 50.09375 C-39.52728368 47.97422744 -36.75411623 47.87960492 -33.17578125 47.859375 C-31.75555664 47.83037109 -31.75555664 47.83037109 -30.30664062 47.80078125 C-28.33027829 47.76726173 -26.35359793 47.74872402 -24.37695312 47.74609375 C-16.8593613 47.55294399 -11.95676602 45.7498182 -6.47827148 40.55786133 C3.32095098 29.72974702 -0.44023345 13.20700353 0 0 Z " fill="#F1CD8D" transform="translate(175,159)"/>
<path d="M0 0 C5.53547576 4.31579466 8.43973052 10.59384625 11.8125 16.625 C13.14434269 18.97091762 14.47763799 21.31596038 15.8125 23.66015625 C16.15461014 24.26276779 16.49672028 24.86537933 16.84919739 25.48625183 C20.25823653 31.48181551 23.7645011 37.41793206 27.2911377 43.34487915 C28.30654404 45.05248389 29.31880921 46.76195519 30.33105469 48.47143555 C33.27849889 53.44570521 36.24053462 58.40845137 39.265625 63.3359375 C39.74475342 64.12476318 40.22388184 64.91358887 40.7175293 65.72631836 C41.58360119 67.15017263 42.45935821 68.56820357 43.34692383 69.97875977 C46.04044836 74.4317499 46.04044836 74.4317499 45.83984375 77.25 C45.06808788 78.85812385 44.2846019 80.46060446 43.5 82.0625 C41.3640234 86.83458431 41.30670728 91.84882165 41 97 C34.11141537 95.02495529 27.39701928 92.75219435 20.6953125 90.21875 C19.71778519 89.85254044 18.74025787 89.48633087 17.73310852 89.10902405 C15.62674446 88.31977691 13.52088825 87.52917329 11.41549683 86.73733521 C5.7524294 84.60783529 0.08537092 82.48902564 -5.58203125 80.37109375 C-6.75650314 79.93208237 -7.93097504 79.49307098 -9.14103699 79.04075623 C-24.46718108 73.32069453 -39.84122432 67.73142026 -55.21630859 62.14453125 C-56.26808792 61.76171494 -57.31986725 61.37889862 -58.40351868 60.98448181 C-60.34895341 60.27648158 -62.29486358 59.56978558 -64.24137878 58.86476135 C-70.20949368 56.69222466 -76.11668031 54.3925622 -82 52 C-80.44837896 48.73749348 -78.78708814 46.53000433 -76.2265625 43.9609375 C-75.1128125 42.84332031 -75.1128125 42.84332031 -73.9765625 41.703125 C-73.20054688 40.93484375 -72.42453125 40.1665625 -71.625 39.375 C-70.85671875 38.59898437 -70.0884375 37.82296875 -69.296875 37.0234375 C-68.55179688 36.2809375 -67.80671875 35.5384375 -67.0390625 34.7734375 C-66.36053223 34.09716309 -65.68200195 33.42088867 -64.98291016 32.72412109 C-60.81073872 29.09645861 -57.24586124 28.46936706 -51.83177185 28.64500427 C-43.43618923 29.69748877 -35.75002757 35.95093835 -28.93359375 40.62109375 C-28.01465836 41.24347427 -27.09572296 41.8658548 -26.14894104 42.50709534 C-23.24123379 44.47823308 -20.33926534 46.45762829 -17.4375 48.4375 C-15.48801417 49.76163318 -13.53814739 51.08520568 -11.58789062 52.40820312 C-7.9929599 54.84732509 -4.40066348 57.29024175 -0.81030273 59.73608398 C-0.01147675 60.27602997 0.78734924 60.81597595 1.61038208 61.37228394 C3.24372603 62.48485518 4.86663326 63.6128633 6.48019409 64.75393677 C7.27039948 65.30443695 8.06060486 65.85493713 8.87475586 66.42211914 C9.57475204 66.91805069 10.27474823 67.41398224 10.99595642 67.92494202 C13.19926371 69.31022333 13.19926371 69.31022333 16.9375 69 C20.06844686 68.23334805 20.06844686 68.23334805 22 66 C22.50031206 62.58428147 22.50031206 62.58428147 22 59 C19.51452706 56.10300306 16.75795634 54.01828883 13.5703125 51.94726562 C12.7026123 51.37987671 11.83491211 50.81248779 10.94091797 50.22790527 C10.01166504 49.62675903 9.08241211 49.02561279 8.125 48.40625 C7.16352051 47.77771118 6.20204102 47.14917236 5.21142578 46.50158691 C2.14392287 44.4964577 -0.92752165 42.49749571 -4 40.5 C-8.04527585 37.87006409 -12.08637367 35.23388267 -16.125 32.59375 C-17.05425293 31.99260376 -17.98350586 31.39145752 -18.94091797 30.77209473 C-19.80861816 30.20470581 -20.67631836 29.63731689 -21.5703125 29.05273438 C-22.71137451 28.31138245 -22.71137451 28.31138245 -23.87548828 27.55505371 C-26.15377657 25.88744199 -28.05524149 24.04188622 -30 22 C-27.04909391 19.02439537 -24.09493253 16.05207322 -21.13769531 13.08276367 C-20.13190797 12.07194415 -19.12701952 11.06022938 -18.12304688 10.04760742 C-16.68073517 8.59318144 -15.23523328 7.14199385 -13.7890625 5.69140625 C-12.48509521 4.37958374 -12.48509521 4.37958374 -11.15478516 3.04125977 C-7.52105304 -0.40102827 -4.96591891 -0.5050087 0 0 Z " fill="#FBDC7B" transform="translate(184,354)"/>
<path d="M0 0 C3.08467599 1.87762886 5.46841021 4.44496956 8 7 C9.2805824 8.26890327 10.56189913 9.53706566 11.84375 10.8046875 C15.58353117 14.51577583 19.29812525 18.25112879 23 22 C20.37095525 24.76034799 17.76441679 26.97751379 14.5703125 29.05273438 C13.7026123 29.62012329 12.83491211 30.18751221 11.94091797 30.77209473 C11.01166504 31.37324097 10.08241211 31.97438721 9.125 32.59375 C7.68278076 33.53655823 7.68278076 33.53655823 6.21142578 34.49841309 C2.10589969 37.18206508 -2.00695675 39.85439752 -6.11914062 42.52783203 C-9.12364538 44.48342403 -12.12438976 46.44468969 -15.125 48.40625 C-16.05425293 49.00739624 -16.98350586 49.60854248 -17.94091797 50.22790527 C-19.24246826 51.07898865 -19.24246826 51.07898865 -20.5703125 51.94726562 C-21.33102051 52.44150024 -22.09172852 52.93573486 -22.87548828 53.44494629 C-25.19092865 55.13975179 -27.1254252 56.82410756 -29 59 C-29.42841969 62.48856031 -29.66830867 64.84902396 -27.875 67.9375 C-24.96521972 69.58637549 -23.3523532 69.42570313 -20 69 C-16.65336672 67.29934494 -13.63945436 65.1611426 -10.5703125 63.0078125 C-9.66231903 62.38784393 -8.75432556 61.76787537 -7.81881714 61.12911987 C-4.91173885 59.14069215 -2.01806346 57.13375039 0.875 55.125 C4.66048928 52.51821825 8.45097865 49.91876667 12.2421875 47.3203125 C13.61827179 46.37457367 13.61827179 46.37457367 15.02215576 45.409729 C39.16876643 28.87717219 39.16876643 28.87717219 45.6875 28.6875 C46.51636719 28.65011719 47.34523438 28.61273438 48.19921875 28.57421875 C56.23647434 29.79606095 61.51459703 36.08592516 66.9375 41.625 C67.71673828 42.40101563 68.49597656 43.17703125 69.29882812 43.9765625 C75 49.73269747 75 49.73269747 75 52 C73.81414307 52.43530029 72.62828613 52.87060059 71.40649414 53.3190918 C47.26813763 62.1803829 23.13230736 71.0485705 -0.99807739 79.93154907 C-3.48190377 80.84575832 -5.96584985 81.7596424 -8.44992065 82.67318726 C-11.96174489 83.96479846 -15.4731128 85.25764306 -18.984375 86.55078125 C-20.52083427 87.11546616 -20.52083427 87.11546616 -22.08833313 87.69155884 C-28.52300759 90.06322169 -34.91524065 92.52298299 -41.28570557 95.06266785 C-44 96 -44 96 -47 96 C-47.18175781 95.11957031 -47.36351562 94.23914063 -47.55078125 93.33203125 C-47.80214844 92.17058594 -48.05351562 91.00914062 -48.3125 89.8125 C-48.55613281 88.66394531 -48.79976563 87.51539063 -49.05078125 86.33203125 C-49.83851832 82.98461816 -49.83851832 82.98461816 -51.66796875 80.32421875 C-53 78 -53 78 -52.73193359 76.13427734 C-51.91455139 73.75083664 -50.86547429 71.71938732 -49.62109375 69.52734375 C-49.12029297 68.64167725 -48.61949219 67.75601074 -48.10351562 66.84350586 C-47.27883789 65.40503296 -47.27883789 65.40503296 -46.4375 63.9375 C-45.86322266 62.92888916 -45.28894531 61.92027832 -44.69726562 60.88110352 C-38.89774001 50.73891173 -32.9418531 40.68988354 -26.95703125 30.65625 C-24.34491336 26.27521074 -21.75948562 21.88028676 -19.19921875 17.46875 C-18.60560547 16.44982666 -18.01199219 15.43090332 -17.40039062 14.38110352 C-16.28565526 12.46543015 -15.17600292 10.54678691 -14.07226562 8.62475586 C-13.33073242 7.35450562 -13.33073242 7.35450562 -12.57421875 6.05859375 C-12.14713623 5.31923584 -11.72005371 4.57987793 -11.2800293 3.81811523 C-8.22267747 -0.52445564 -4.94166207 -0.72909768 0 0 Z " fill="#FCDD7B" transform="translate(335,354)"/>
<path d="M0 0 C0.33 0.66 0.66 1.32 1 2 C6.28 2 11.56 2 17 2 C17.33 1.34 17.66 0.68 18 0 C18.433125 1.7015625 18.433125 1.7015625 18.875 3.4375 C19.24625 4.613125 19.6175 5.78875 20 7 C22.79120091 8.39560045 25.20205692 8.21808288 28.3203125 8.31640625 C29.57714844 8.35830078 30.83398438 8.40019531 32.12890625 8.44335938 C34.10697266 8.50233398 34.10697266 8.50233398 36.125 8.5625 C37.46485751 8.60569512 38.80470156 8.64930973 40.14453125 8.69335938 C43.4295562 8.7997091 46.71476398 8.90038317 50 9 C50 14.61 50 20.22 50 26 C-24.58 26 -99.16 26 -176 26 C-176 20.39 -176 14.78 -176 9 C-173.85183273 8.99191315 -171.70366547 8.98382629 -169.49040222 8.97549438 C-149.28601175 8.89849131 -129.08169017 8.81055472 -108.87739086 8.71247292 C-98.48915778 8.6623077 -88.10093275 8.61586528 -77.71264648 8.578125 C-68.66036564 8.545229 -59.60814654 8.50541113 -50.55593377 8.45720994 C-45.76092143 8.43192111 -40.96595016 8.41014691 -36.1708889 8.39665604 C-31.66064369 8.38385727 -27.1505392 8.36182664 -22.64037132 8.33261681 C-20.98232542 8.32352389 -19.32425684 8.31784682 -17.66618729 8.31578636 C-15.40747996 8.31247587 -13.14917458 8.29703189 -10.89054871 8.2784729 C-9.62492694 8.27294214 -8.35930517 8.26741138 -7.05533123 8.26171303 C-3.82651706 8.2322137 -3.82651706 8.2322137 -1 6 C-0.26656572 2.93443402 -0.26656572 2.93443402 0 0 Z " fill="#FBDD7B" transform="translate(319,118)"/>
<path d="M0 0 C1.81640625 1.41796875 1.81640625 1.41796875 3.5625 3.1875 C4.43068359 4.04408203 4.43068359 4.04408203 5.31640625 4.91796875 C7.34646762 7.42846228 8.59226339 10.1034581 10 13 C8.57340813 13.48436523 8.57340813 13.48436523 7.11799622 13.97851562 C-5.6978114 18.38647621 -18.24002458 23.41836645 -30.80078125 28.5 C-33.0890547 29.42233673 -35.37748488 30.34428468 -37.6660614 31.26586914 C-43.66862342 33.68389833 -49.66958509 36.10587084 -55.67004395 38.52911377 C-75.10373202 46.37677034 -94.54351076 54.2090288 -114 62 C-114.96053032 62.38512756 -115.92106064 62.77025513 -116.91069794 63.16705322 C-122.08365165 65.24034799 -127.26043758 67.30330817 -132.44518089 69.34695435 C-133.93750072 69.93665377 -135.42851559 70.52966937 -136.91802406 71.12643433 C-144.83962 74.29644589 -152.49022003 76.92866305 -161 78 C-161 80.97 -161 83.94 -161 87 C-161.33 87 -161.66 87 -162 87 C-162 78.42 -162 69.84 -162 61 C-159.03776042 59.56770833 -156.07552083 58.13541667 -153.11328125 56.703125 C-150.03434852 55.1755072 -150.03434852 55.1755072 -147.94897461 53.14526367 C-143.84006196 50.15619045 -139.46176755 48.68269659 -134.703125 46.97265625 C-133.14800201 46.40078079 -133.14800201 46.40078079 -131.5614624 45.81735229 C-128.1274839 44.55686654 -124.68880094 43.30976275 -121.25 42.0625 C-118.83689723 41.17940174 -116.42414232 40.29535239 -114.01171875 39.41040039 C-109.58625655 37.78812692 -105.15980433 36.1686644 -100.73162079 34.55383587 C-89.92321094 30.61230899 -79.13036115 26.62903932 -68.33764648 22.64477539 C-63.47911204 20.85126692 -58.61927678 19.06136264 -53.75805664 17.27514648 C-43.78980165 13.61221965 -33.82406336 9.94530564 -23.88671875 6.19921875 C-21.78664238 5.41189669 -19.68625185 4.62542074 -17.58569336 3.83938599 C-15.75923266 3.15199662 -13.93713047 2.45306003 -12.11523438 1.75366211 C-11.07044922 1.36315674 -10.02566406 0.97265137 -8.94921875 0.5703125 C-8.07612061 0.23789551 -7.20302246 -0.09452148 -6.3034668 -0.43701172 C-3.74529999 -1.062251 -2.44070967 -0.92905498 0 0 Z " fill="#D84553" transform="translate(425,418)"/>
<path d="M0 0 C3.2686428 0.39412734 6.25320655 1.3516748 9.33984375 2.46875 C10.64791992 2.94006348 10.64791992 2.94006348 11.98242188 3.42089844 C12.95759766 3.77700195 13.93277344 4.13310547 14.9375 4.5 C16.01193359 4.88961914 17.08636719 5.27923828 18.19335938 5.68066406 C32.09385598 10.73711174 45.96140785 15.88414414 59.83276367 21.01983643 C70.28180922 24.88826041 80.73472618 28.74601987 91.19140625 32.59375 C92.48367553 33.06934966 93.77594238 33.54495593 95.06820679 34.02056885 C100.14035059 35.88724758 105.21255362 37.75376258 110.28540039 39.61853027 C113.81687309 40.91673689 117.3479203 42.21609519 120.87890625 43.515625 C121.91261856 43.89521362 122.94633087 44.27480225 124.0113678 44.66589355 C127.01025628 45.77018958 130.00550067 46.88386161 133 48 C134.74698685 48.64370544 134.74698685 48.64370544 136.52926636 49.30041504 C137.69257477 49.73591675 138.85588318 50.17141846 140.05444336 50.62011719 C141.11392685 51.01398621 142.17341034 51.40785522 143.26499939 51.81365967 C145.69370772 52.86714194 147.30642605 53.81041824 149.25 55.5625 C152.66871981 58.84005958 152.66871981 58.84005958 161 62 C161 70.58 161 79.16 161 88 C160.67 88 160.34 88 160 88 C160 85.03 160 82.06 160 79 C159.25467136 78.90055556 158.50934273 78.80111113 157.74142838 78.69865322 C150.56814386 77.63867153 144.26270099 75.89428431 137.57714844 73.12719727 C136.12472496 72.54343323 136.12472496 72.54343323 134.64295959 71.94787598 C131.46035047 70.66546028 128.28500594 69.36599451 125.109375 68.06640625 C122.84300087 67.14959482 120.5761652 66.2339236 118.30889893 65.31932068 C112.32582416 62.9025154 106.34863953 60.47147516 100.3727417 58.0369873 C94.47421364 55.6362352 88.57111757 53.24678474 82.66796875 50.85742188 C80.33125449 49.91157924 77.99454388 48.96572761 75.65783691 48.01986694 C74.50407059 47.55286755 73.35030426 47.08586815 72.16157532 46.60471725 C68.67854184 45.19410629 65.19631715 43.78151431 61.7142334 42.36856079 C43.71156919 35.06826089 25.66199831 27.89062962 7.58221436 20.78358459 C6.62437294 20.40639597 5.66653152 20.02920734 4.67966461 19.64058876 C2.90323103 18.94123424 1.12618753 18.24342612 -0.65158844 17.54749107 C-1.43460075 17.23915651 -2.21761307 16.93082195 -3.02435303 16.61314392 C-3.70003201 16.34810531 -4.37571098 16.08306669 -5.07186508 15.8099966 C-7.09739219 14.95908619 -9.04597051 14.0031397 -11 13 C-3.78584229 3.00925926 -3.78584229 3.00925926 0 0 Z " fill="#D94554" transform="translate(88,417)"/>
<path d="M0 0 C1.175625 0.4125 2.35125 0.825 3.5625 1.25 C32.33634512 10.79603981 57.10294906 10.87743597 85.93212891 1.63256836 C87.94180977 1.01780058 89.95686959 0.49077731 92 0 C82.22342778 18.30963305 71.6078581 36.16444111 61 54 C60.41992188 53.85852539 59.83984375 53.71705078 59.2421875 53.57128906 C54.77699317 52.52314732 50.61111852 51.72438267 46 51.75 C45.071875 51.74484375 44.14375 51.7396875 43.1875 51.734375 C39.01877095 52.08176909 35.0577622 53.01035688 31 54 C30.59797363 53.30140869 30.19594727 52.60281738 29.78173828 51.88305664 C27.89698096 48.60906378 26.01128039 45.33561551 24.125 42.0625 C23.78397247 41.47064911 23.44294495 40.87879822 23.09158325 40.26901245 C18.90900522 33.01238916 14.70426443 25.77005496 10.4375 18.5625 C6.81933953 12.44819214 3.33405004 6.27506165 0 0 Z " fill="#FBA75D" transform="translate(210,366)"/>
<path d="M0 0 C0.33 0 0.66 0 1 0 C1.01458252 0.56283691 1.02916504 1.12567383 1.04418945 1.70556641 C1.37312334 13.11248215 1.89319384 23.96368857 5 35 C5.33902344 36.20785156 5.67804688 37.41570312 6.02734375 38.66015625 C10.23139764 52.34810276 16.5288268 64.22245808 26 75 C26.65226562 75.80695313 27.30453125 76.61390625 27.9765625 77.4453125 C37.7228232 89.08972135 50.29581076 96.81305478 64 103 C64 103.33 64 103.66 64 104 C44.8723931 105.5614373 24.19913958 93.93845367 10 82 C-8.11240909 66.05936826 -21.74721883 42.38880487 -24 18 C-24.1888073 12.99850717 -24.12152864 8.00292895 -24 3 C-23.40574219 3.2165625 -22.81148437 3.433125 -22.19921875 3.65625 C-15.64477678 5.85805321 -9.8865622 6.35349274 -3 6 C-2.01 4.02 -1.02 2.04 0 0 Z " fill="#765251" transform="translate(183,256)"/>
<path d="M0 0 C3.08467599 1.87762886 5.46841021 4.44496956 8 7 C9.2805824 8.26890327 10.56189913 9.53706566 11.84375 10.8046875 C15.58353117 14.51577583 19.29812525 18.25112879 23 22 C20.37095525 24.76034799 17.76441679 26.97751379 14.5703125 29.05273438 C13.7026123 29.62012329 12.83491211 30.18751221 11.94091797 30.77209473 C10.54703857 31.67381409 10.54703857 31.67381409 9.125 32.59375 C7.68278076 33.53655823 7.68278076 33.53655823 6.21142578 34.49841309 C2.10589969 37.18206508 -2.00695675 39.85439752 -6.11914062 42.52783203 C-9.12364538 44.48342403 -12.12438976 46.44468969 -15.125 48.40625 C-16.05425293 49.00739624 -16.98350586 49.60854248 -17.94091797 50.22790527 C-19.24246826 51.07898865 -19.24246826 51.07898865 -20.5703125 51.94726562 C-21.33102051 52.44150024 -22.09172852 52.93573486 -22.87548828 53.44494629 C-26.16747555 55.85454327 -28.65795946 57.74585134 -29.75 61.75 C-29.8325 62.4925 -29.915 63.235 -30 64 C-30.85207031 64.24492187 -31.70414062 64.48984375 -32.58203125 64.7421875 C-36.93106437 66.34263169 -40.5631406 68.73126591 -44.40820312 71.25390625 C-48.69834592 74 -48.69834592 74 -52 74 C-43.86310829 59.4242218 -35.50731544 44.99332016 -26.95703125 30.65625 C-24.34491336 26.27521074 -21.75948562 21.88028676 -19.19921875 17.46875 C-18.60560547 16.44982666 -18.01199219 15.43090332 -17.40039062 14.38110352 C-16.28565526 12.46543015 -15.17600292 10.54678691 -14.07226562 8.62475586 C-13.33073242 7.35450562 -13.33073242 7.35450562 -12.57421875 6.05859375 C-12.14713623 5.31923584 -11.72005371 4.57987793 -11.2800293 3.81811523 C-8.22267747 -0.52445564 -4.94166207 -0.72909768 0 0 Z " fill="#FBCD62" transform="translate(335,354)"/>
<path d="M0 0 C5.53543645 4.31576402 8.43985637 10.59381501 11.8125 16.625 C13.14169656 18.96703606 14.47235663 21.30818836 15.8046875 23.6484375 C16.14638474 24.25042969 16.48808197 24.85242188 16.84013367 25.47265625 C20.28592782 31.53262772 23.83729598 37.52811943 27.40512085 43.51681519 C36.72499118 59.1632545 36.72499118 59.1632545 41 66.5625 C41.598125 67.59503906 42.19625 68.62757813 42.8125 69.69140625 C44 72 44 72 44 74 C38.96163099 72.17659026 34.49560347 69.46559878 29.90820312 66.74609375 C26.67186997 64.68685293 26.67186997 64.68685293 23 64 C22.86746826 62.98631348 22.73493652 61.97262695 22.59838867 60.92822266 C20.97477347 55.33503898 16.11436977 53.08471603 11.42578125 50.1484375 C10.46858688 49.5265152 9.51139252 48.9045929 8.52519226 48.26382446 C5.46607294 46.28188175 2.39011101 44.32807616 -0.6875 42.375 C-2.74013818 41.05395516 -4.7915852 39.73105755 -6.84179688 38.40625 C-9.74021589 36.53351145 -12.63998838 34.66354673 -15.54972839 32.80844116 C-20.47170689 29.66786059 -25.28433607 26.44325986 -30 23 C-25.64199371 17.78934031 -21.06625699 12.91287041 -16.25 8.125 C-15.57839844 7.44953125 -14.90679687 6.7740625 -14.21484375 6.078125 C-13.57160156 5.43617188 -12.92835938 4.79421875 -12.265625 4.1328125 C-11.68586914 3.55418457 -11.10611328 2.97555664 -10.50878906 2.37939453 C-7.23812048 -0.61077982 -4.30276993 -0.43756982 0 0 Z " fill="#FBCD62" transform="translate(184,354)"/>
<path d="M0 0 C1.89105469 0.32484375 1.89105469 0.32484375 3.8203125 0.65625 C24.38185195 4.00504787 43.49848619 3.52173243 64 0 C63.41608518 3.94341267 62.21548343 6.71973021 60.1640625 10.125 C59.59429687 11.07890625 59.02453125 12.0328125 58.4375 13.015625 C57.839375 14.00046875 57.24125 14.9853125 56.625 16 C56.03460938 16.98484375 55.44421875 17.9696875 54.8359375 18.984375 C53.23042838 21.66022354 51.615966 24.3304595 50 27 C48.99927891 28.6662338 47.99906614 30.33277337 47 32 C45.7625 31.67 44.525 31.34 43.25 31 C34.20037419 29.007944 25.89901392 29.82962938 17 32 C16.5560791 31.22809326 16.1121582 30.45618652 15.65478516 29.66088867 C14.00439667 26.79225346 12.35309407 23.92414857 10.70117188 21.05639648 C9.98693827 19.81604751 9.2730677 18.57548941 8.55957031 17.3347168 C7.53285999 15.5494134 6.50483853 13.7648707 5.4765625 11.98046875 C4.549646 10.37014771 4.549646 10.37014771 3.60400391 8.72729492 C2.46050684 6.78300181 1.25119773 4.8767966 0 3 C0 2.01 0 1.02 0 0 Z " fill="#FCBF67" transform="translate(224,388)"/>
<path d="M0 0 C2.88807294 1.35720131 5.36079945 2.93808636 7.9375 4.8125 C15.28104578 9.77304086 23.30430319 12.5507172 32 14 C32 20.27 32 26.54 32 33 C18.47 33 4.94 33 -9 33 C-10.20535714 10.90178571 -10.20535714 10.90178571 -4.5 4.125 C-1.96875 1.6328125 -1.96875 1.6328125 0 0 Z " fill="#FBDD7B" transform="translate(152,79)"/>
<path d="M0 0 C3.73777983 2.574915 6.71309099 4.83933858 8.8125 8.9375 C9.80923255 14.5705491 9.61830577 19.26619915 7.125 24.4375 C2.16037613 29.80466094 -0.89139139 31.67168479 -8.0625 32.25 C-12.42205451 32.18517391 -14.8259369 30.76426897 -18.1875 27.9375 C-22.90907458 22.5778748 -23.70592423 19.14474037 -23.671875 12.0625 C-22.88825202 7.00686789 -20.11345809 4.04953995 -16.1875 0.9375 C-11.0575215 -2.17931961 -5.5673308 -1.85577693 0 0 Z " fill="#FAF1D3" transform="translate(263.1875,433.0625)"/>
<path d="M0 0 C0.66 0 1.32 0 2 0 C4.66574951 3.54482077 6.87886211 7.40333151 9.1875 11.1875 C9.85458984 12.24259766 10.52167969 13.29769531 11.20898438 14.38476562 C11.83482422 15.40634766 12.46066406 16.42792969 13.10546875 17.48046875 C13.68449951 18.41785889 14.26353027 19.35524902 14.86010742 20.32104492 C16.22200279 23.52174696 16.13724251 24.7481671 15 28 C13.69311523 30.49536133 13.69311523 30.49536133 12.05859375 33.08203125 C11.47529297 34.01337891 10.89199219 34.94472656 10.29101562 35.90429688 C9.67935547 36.86400391 9.06769531 37.82371094 8.4375 38.8125 C7.82197266 39.79154297 7.20644531 40.77058594 6.57226562 41.77929688 C5.054926 44.19057303 3.5306827 46.59718045 2 49 C-3.21898731 47.26033756 -5.06656946 41.76664438 -7.75 37.1875 C-8.36488281 36.17623047 -8.97976562 35.16496094 -9.61328125 34.12304688 C-10.47759766 32.6602832 -10.47759766 32.6602832 -11.359375 31.16796875 C-11.89014648 30.27360107 -12.42091797 29.3792334 -12.96777344 28.45776367 C-14 26 -14 26 -13.84448242 24.00219727 C-11.88087938 19.34665851 -9.13550821 15.08696356 -6.5625 10.75 C-5.96373047 9.71875 -5.36496094 8.6875 -4.74804688 7.625 C-4.17248047 6.65046875 -3.59691406 5.6759375 -3.00390625 4.671875 C-2.21222046 3.32754395 -2.21222046 3.32754395 -1.40454102 1.95605469 C-0.94104248 1.31055664 -0.47754395 0.66505859 0 0 Z " fill="#FADC7A" transform="translate(255,23)"/>
<path d="M0 0 C0.87648193 -0.00287018 1.75296387 -0.00574036 2.65600586 -0.00869751 C4.50863288 -0.01073848 6.36128142 -0.00520628 8.21386719 0.00732422 C11.05192179 0.02337766 13.88855227 0.00747695 16.7265625 -0.01171875 C18.52604481 -0.00973632 20.32552624 -0.00589266 22.125 0 C22.97505615 -0.00607269 23.8251123 -0.01214539 24.70092773 -0.0184021 C30.59737266 0.05209757 30.59737266 0.05209757 32.77905273 1.67660522 C34.56959773 4.07874378 34.52109425 6.44053811 34.65625 9.36328125 C33.70697593 12.61704301 31.87739505 13.59476993 29.0625 15.3984375 C26.19935407 15.78913455 23.73178093 15.96069587 20.875 15.9296875 C20.09487549 15.9335144 19.31475098 15.93734131 18.51098633 15.94128418 C16.86701156 15.94399755 15.22299319 15.93667655 13.57910156 15.91992188 C11.06997977 15.89850136 8.56372078 15.91974023 6.0546875 15.9453125 C4.45311871 15.94266912 2.8515517 15.93754392 1.25 15.9296875 C0.50403564 15.93778442 -0.24192871 15.94588135 -1.01049805 15.95422363 C-5.91966587 15.86632925 -8.51484976 14.93701888 -11.9375 11.3984375 C-12.79667455 8.45350368 -12.3360621 6.53711401 -11.9375 3.3984375 C-8.85337797 -0.73912311 -4.75481435 -0.03396779 0 0 Z " fill="#040302" transform="translate(244.9375,288.6015625)"/>
<path d="M0 0 C5.61 0 11.22 0 17 0 C17 10.89 17 21.78 17 33 C12.71 33 8.42 33 4 33 C-0.5 27.375 -0.5 27.375 -0.390625 21.38671875 C-0.37773437 20.13955078 -0.36484375 18.89238281 -0.3515625 17.60742188 C-0.31804687 16.31384766 -0.28453125 15.02027344 -0.25 13.6875 C-0.23195313 12.37458984 -0.21390625 11.06167969 -0.1953125 9.70898438 C-0.14823409 6.47234385 -0.076493 3.23607897 0 0 Z " fill="#926758" transform="translate(352,159)"/>
<path d="M0 0 C5.61 0 11.22 0 17 0 C17.13483705 4.5634852 17.23407207 9.12299441 17.3125 13.6875 C17.35439453 14.98107422 17.39628906 16.27464844 17.43945312 17.60742188 C17.45556641 18.85458984 17.47167969 20.10175781 17.48828125 21.38671875 C17.51446533 22.53358154 17.54064941 23.68044434 17.56762695 24.86206055 C17 28 17 28 15.21948242 30.91333008 C12 33 12 33 0 33 C0 22.11 0 11.22 0 0 Z " fill="#755050" transform="translate(143,159)"/>
<path d="M0 0 C0.88945312 -0.01546875 1.77890625 -0.0309375 2.6953125 -0.046875 C6.91296442 -0.02169499 9.39378796 0.14439648 13.08984375 2.3125 C15 4.5 15 4.5 15.5625 8 C14.90884277 12.06720054 14.1691831 12.99128815 11 15.5 C7.20433052 16.30928355 3.37240974 16.10308629 -0.5 16.0625 C-1.54542969 16.08634766 -2.59085938 16.11019531 -3.66796875 16.13476562 C-11.28166811 16.12014264 -11.28166811 16.12014264 -14.71484375 13.15625 C-16 10.5 -16 10.5 -16.0625 7.4375 C-13.26749987 -0.28985331 -7.12715034 -0.12395044 0 0 Z " fill="#070604" transform="translate(208,175.5)"/>
<path d="M0 0 C0.88945312 -0.01546875 1.77890625 -0.0309375 2.6953125 -0.046875 C6.88969659 -0.0218339 9.39881308 0.15418452 13.08984375 2.27734375 C15.11525145 4.63410649 15.66251095 5.50922446 15.5625 8.5625 C15 12.5 15 12.5 13.28125 14.21899414 C9.1320228 16.54893797 4.65198189 15.97055672 0 15.9375 C-1.49660156 15.9674707 -1.49660156 15.9674707 -3.0234375 15.99804688 C-10.2767324 15.99318542 -10.2767324 15.99318542 -13.65234375 13.69140625 C-15.66486416 10.41887307 -15.60349726 8.25509405 -15 4.5 C-10.68558527 -0.44084304 -6.10686188 -0.10620629 0 0 Z " fill="#060503" transform="translate(304,175.5)"/>
<path d="M0 0 C2.5 1.75 2.5 1.75 4 5 C4.72194834 10.44469377 4.82315658 15.21649407 2.5 20.25 C-1.27534979 22.89274485 -3.44390728 22.65087039 -8 22 C-10.68525689 19.56439285 -10.99231022 18.06883109 -11.3984375 14.43359375 C-11.39070313 13.11488281 -11.38296875 11.79617187 -11.375 10.4375 C-11.38660156 9.76525391 -11.39820313 9.09300781 -11.41015625 8.40039062 C-11.3931184 5.54087157 -11.32151869 3.48670261 -9.72265625 1.06640625 C-6.65482427 -0.83272783 -3.41558335 -0.68724011 0 0 Z " fill="#070604" transform="translate(308,201)"/>
<path d="M0 0 C1.71875 1.06640625 1.71875 1.06640625 3 3 C3.32632361 5.58413022 3.46469974 7.85847049 3.4375 10.4375 C3.45683594 11.75621094 3.47617188 13.07492188 3.49609375 14.43359375 C3 18 3 18 1.19140625 20.4375 C-2.03764649 22.73985489 -4.1383656 22.62061981 -8 22 C-10.4375 20.25 -10.4375 20.25 -12 17 C-12.72901208 11.55871395 -12.82154062 6.78000467 -10.5 1.75 C-6.7505036 -0.87464748 -4.5277415 -0.5749513 0 0 Z " fill="#070604" transform="translate(212,201)"/>
<path d="M0 0 C0.33 0 0.66 0 1 0 C1 12.21 1 24.42 1 37 C-4.625 31.375 -4.625 31.375 -6.67578125 28.66796875 C-7.11083984 28.09755859 -7.54589844 27.52714844 -7.99414062 26.93945312 C-8.42919922 26.36130859 -8.86425781 25.78316406 -9.3125 25.1875 C-9.76689453 24.59001953 -10.22128906 23.99253906 -10.68945312 23.37695312 C-11.79633917 21.92052412 -12.89865264 20.46062183 -14 19 C-11.50808348 14.56710089 -8.52021267 10.66406445 -5.375 6.6875 C-4.87226563 6.04232422 -4.36953125 5.39714844 -3.8515625 4.73242188 C-2.59341411 3.13437049 -1.29977238 1.56438402 0 0 Z " fill="#F1D476" transform="translate(368,29)"/>
<path d="M0 0 C5.625 5.625 5.625 5.625 7.67578125 8.33203125 C8.32836914 9.18764648 8.32836914 9.18764648 8.99414062 10.06054688 C9.42919922 10.63869141 9.86425781 11.21683594 10.3125 11.8125 C10.76689453 12.40998047 11.22128906 13.00746094 11.68945312 13.62304688 C12.79633917 15.07947588 13.89865264 16.53937817 15 18 C12.50808348 22.43289911 9.52021267 26.33593555 6.375 30.3125 C5.62089844 31.28026367 5.62089844 31.28026367 4.8515625 32.26757812 C3.59341411 33.86562951 2.29977238 35.43561598 1 37 C0.67 37 0.34 37 0 37 C0 24.79 0 12.58 0 0 Z " fill="#F1C55E" transform="translate(143,29)"/>
<path d="M0 0 C1.18239258 0.01353516 1.18239258 0.01353516 2.38867188 0.02734375 C4.32174666 0.05077496 6.2546638 0.08664162 8.1875 0.125 C6.65636696 4.74902178 6.65636696 4.74902178 4.53125 6.453125 C-3.0625 10.25 -3.0625 10.25 -6.9453125 10.22265625 C-7.75097656 10.21943359 -8.55664062 10.21621094 -9.38671875 10.21289062 C-10.22847656 10.20451172 -11.07023438 10.19613281 -11.9375 10.1875 C-12.78699219 10.18298828 -13.63648438 10.17847656 -14.51171875 10.17382812 C-16.61200909 10.16202874 -18.7122633 10.14409306 -20.8125 10.125 C-18.76752779 5.66154467 -16.06088922 3.30312277 -11.6953125 1.015625 C-7.74983951 -0.20330162 -4.10098186 -0.08937597 0 0 Z " fill="#6B4A4A" transform="translate(237.8125,254.875)"/>
<path d="M0 0 C19.3926993 -0.7933377 19.3926993 -0.7933377 26.6953125 5.44921875 C28 7 28 7 28 10 C9.60095579 10.75268817 9.60095579 10.75268817 3 6 C0 2.8125 0 2.8125 0 0 Z " fill="#6C4A4A" transform="translate(266,255)"/>
<path d="M0 0 C3.31469389 1.22499557 4.84046741 2.16720362 6.875 5.0625 C7.51156938 8.80234509 7.13084708 10.57212644 5.375 13.9375 C2.34584317 16.51228331 0.66849229 16.80795844 -3.21875 16.546875 C-5.125 16.0625 -5.125 16.0625 -7.625 13.9375 C-9.41452585 10.50757546 -9.91735586 8.86580813 -9.125 5.0625 C-6.16174116 1.74647225 -4.52716343 0.09054327 0 0 Z " fill="#FFFEFD" transform="translate(257.125,439.9375)"/>
</svg>
